<svg width="25" height="25" viewBox="0 0 25 25" fill="none" xmlns="http://www.w3.org/2000/svg">
<path d="M18.7649 5.57578C16.5571 3.36797 12.9617 3.36797 10.7563 5.57578L4.63908 11.6883C4.59924 11.7281 4.57815 11.782 4.57815 11.8383C4.57815 11.8945 4.59924 11.9484 4.63908 11.9883L5.50393 12.8531C5.54346 12.8925 5.59697 12.9146 5.65276 12.9146C5.70854 12.9146 5.76205 12.8925 5.80158 12.8531L11.9188 6.74062C12.6781 5.98125 13.6883 5.56406 14.7617 5.56406C15.8352 5.56406 16.8453 5.98125 17.6024 6.74062C18.3617 7.5 18.7789 8.51016 18.7789 9.58125C18.7789 10.6547 18.3617 11.6625 17.6024 12.4219L11.368 18.6539L10.3578 19.6641C9.4133 20.6086 7.87815 20.6086 6.93362 19.6641C6.47658 19.207 6.2258 18.6 6.2258 17.9531C6.2258 17.3062 6.47658 16.6992 6.93362 16.2422L13.1188 10.0594C13.2758 9.90469 13.4821 9.81797 13.7024 9.81797H13.7047C13.925 9.81797 14.1289 9.90469 14.2836 10.0594C14.4406 10.2164 14.525 10.4227 14.525 10.643C14.525 10.8609 14.4383 11.0672 14.2836 11.2219L9.22815 16.2727C9.1883 16.3125 9.16721 16.3664 9.16721 16.4227C9.16721 16.4789 9.1883 16.5328 9.22815 16.5727L10.093 17.4375C10.1325 17.4769 10.186 17.499 10.2418 17.499C10.2976 17.499 10.3511 17.4769 10.3906 17.4375L15.4438 12.3844C15.9102 11.918 16.1656 11.2992 16.1656 10.6406C16.1656 9.98203 15.9078 9.36094 15.4438 8.89687C14.4805 7.93359 12.9149 7.93594 11.9516 8.89687L11.3516 9.49922L5.76877 15.0797C5.38986 15.4564 5.0895 15.9045 4.88512 16.3982C4.68074 16.8919 4.5764 17.4212 4.57815 17.9555C4.57815 19.0406 5.00237 20.0602 5.76877 20.8266C6.5633 21.6187 7.60393 22.0148 8.64455 22.0148C9.68518 22.0148 10.7258 21.6187 11.518 20.8266L18.7649 13.5844C19.8313 12.5156 20.4219 11.093 20.4219 9.58125C20.4242 8.06719 19.8336 6.64453 18.7649 5.57578Z" fill="white"/>
</svg>
