<svg width="24" height="24" viewBox="0 0 24 24" fill="none" xmlns="http://www.w3.org/2000/svg">
<path d="M1 12C1 4 4 1 12 1C20 1 23 4 23 12C23 20 20 23 12 23C4 23 1 20 1 12Z" fill="#0004FF"/>
<path d="M16.4399 7.08008H7.5599C6.98703 7.08008 6.43763 7.30765 6.03255 7.71273C5.62747 8.11781 5.3999 8.66721 5.3999 9.24008V14.7601C5.3999 15.3329 5.62747 15.8823 6.03255 16.2874C6.43763 16.6925 6.98703 16.9201 7.5599 16.9201H16.4399C17.0128 16.9201 17.5622 16.6925 17.9673 16.2874C18.3723 15.8823 18.5999 15.3329 18.5999 14.7601V9.24008C18.5999 8.66721 18.3723 8.11781 17.9673 7.71273C17.5622 7.30765 17.0128 7.08008 16.4399 7.08008ZM11.9999 14.4001C11.5252 14.4001 11.0612 14.2593 10.6665 13.9956C10.2719 13.7319 9.96424 13.3571 9.78259 12.9185C9.60094 12.48 9.55341 11.9974 9.64602 11.5319C9.73862 11.0663 9.9672 10.6387 10.3028 10.303C10.6385 9.96738 11.0661 9.7388 11.5317 9.64619C11.9972 9.55359 12.4798 9.60112 12.9183 9.78277C13.3569 9.96442 13.7317 10.272 13.9954 10.6667C14.2591 11.0614 14.3999 11.5254 14.3999 12.0001C14.4012 12.3156 14.3401 12.6283 14.2199 12.9201C14.0998 13.2119 13.923 13.477 13.6999 13.7001C13.4768 13.9232 13.2117 14.0999 12.9199 14.2201C12.6281 14.3402 12.3154 14.4014 11.9999 14.4001ZM15.9999 10.8601C15.7388 10.8601 15.4836 10.7827 15.2666 10.6376C15.0495 10.4926 14.8803 10.2864 14.7804 10.0452C14.6805 9.80402 14.6543 9.53861 14.7053 9.28256C14.7562 9.0265 14.8819 8.7913 15.0665 8.6067C15.2511 8.42209 15.4863 8.29637 15.7424 8.24544C15.9984 8.19451 16.2638 8.22065 16.505 8.32056C16.7462 8.42047 16.9524 8.58965 17.0974 8.80673C17.2425 9.0238 17.3199 9.27901 17.3199 9.54008C17.3199 9.89016 17.1808 10.2259 16.9333 10.4735C16.6857 10.721 16.35 10.8601 15.9999 10.8601Z" fill="white"/>
</svg>
