<svg width="24" height="24" viewBox="0 0 24 24" fill="none" xmlns="http://www.w3.org/2000/svg">
<path d="M5.06969 12.0798C4.5467 11.9643 4.00041 12.0197 3.51131 12.238C3.02221 12.4564 2.61615 12.826 2.35295 13.2925C2.08974 13.7589 1.98332 14.2976 2.04934 14.8291C2.11537 15.3607 2.35036 15.8569 2.71969 16.2449L7.74469 21.2449C8.1326 21.6142 8.62887 21.8492 9.1604 21.9152C9.69193 21.9812 10.2306 21.8748 10.6971 21.6116C11.1636 21.3484 11.5332 20.9423 11.7515 20.4532C11.9698 19.9641 12.0253 19.4178 11.9097 18.8948L13.4997 20.4998C14.4311 21.4127 15.6852 21.921 16.9893 21.9144C18.2935 21.9078 19.5423 21.3869 20.4645 20.4647C21.3867 19.5425 21.9077 18.2936 21.9143 16.9895C21.9209 15.6854 21.4125 14.4313 20.4997 13.4998L18.9197 11.9198C19.4427 12.0354 19.989 11.98 20.4781 11.7617C20.9672 11.5433 21.3732 11.1737 21.6364 10.7072C21.8996 10.2408 22.0061 9.70208 21.94 9.17055C21.874 8.63903 21.639 8.14276 21.2697 7.75485L16.2447 2.75485C15.8568 2.38552 15.3605 2.15053 14.829 2.0845C14.2975 2.01847 13.7588 2.1249 13.2923 2.3881C12.8258 2.6513 12.4562 3.05736 12.2379 3.54647C12.0196 4.03557 11.9641 4.58185 12.0797 5.10485L10.4997 3.49985C9.56824 2.58703 8.31419 2.07868 7.01005 2.08527C5.7059 2.09185 4.45705 2.61285 3.53487 3.53503C2.61269 4.45721 2.0917 5.70606 2.08511 7.0102C2.07853 8.31435 2.58687 9.5684 3.49969 10.4998L5.06969 12.0798Z" fill="#F4F4F6"/>
<path d="M21.4902 4H20.4902V4.5H21.4902V4Z" fill="#E2DFF4"/>
<path d="M19.9902 2.5H19.4902V3.5H19.9902V2.5Z" fill="#E2DFF4"/>
<path d="M2 18.7499C2.00001 18.6012 2.04426 18.4558 2.12713 18.3322C2.20999 18.2087 2.32772 18.1126 2.46535 18.0561C2.60297 17.9997 2.75428 17.9854 2.90003 18.0152C3.04579 18.0449 3.1794 18.1174 3.28388 18.2232C3.38836 18.3291 3.45899 18.4637 3.48679 18.6098C3.51459 18.756 3.4983 18.9071 3.44 19.0439C3.3817 19.1808 3.28401 19.2972 3.15937 19.3784C3.03472 19.4596 2.88875 19.5019 2.74 19.4999C2.54283 19.4973 2.35462 19.4171 2.21612 19.2768C2.07763 19.1364 1.99998 18.9471 2 18.7499ZM3 18.7499C3 18.7005 2.98534 18.6522 2.95787 18.611C2.9304 18.5699 2.89135 18.5379 2.84567 18.519C2.79999 18.5 2.74972 18.4951 2.70123 18.5047C2.65273 18.5144 2.60819 18.5382 2.57322 18.5732C2.53826 18.6081 2.51445 18.6527 2.5048 18.7012C2.49516 18.7497 2.50011 18.7999 2.51903 18.8456C2.53795 18.8913 2.57 18.9303 2.61111 18.9578C2.65222 18.9853 2.70055 18.9999 2.75 18.9999C2.8163 18.9999 2.87989 18.9736 2.92678 18.9267C2.97366 18.8798 3 18.8162 3 18.7499Z" fill="#E2DFF4"/>
<path d="M10.7402 2.5C11.1544 2.5 11.4902 2.16421 11.4902 1.75C11.4902 1.33579 11.1544 1 10.7402 1C10.326 1 9.99023 1.33579 9.99023 1.75C9.99023 2.16421 10.326 2.5 10.7402 2.5Z" fill="#F4F4F6"/>
<path d="M13.2402 23C13.6544 23 13.9902 22.6642 13.9902 22.25C13.9902 21.8358 13.6544 21.5 13.2402 21.5C12.826 21.5 12.4902 21.8358 12.4902 22.25C12.4902 22.6642 12.826 23 13.2402 23Z" fill="#F4F4F6"/>
<path d="M22.26 12.2501C22.4079 12.252 22.5519 12.2977 22.6739 12.3813C22.7959 12.4649 22.8905 12.5827 22.9457 12.7199C23.001 12.8571 23.0144 13.0076 22.9843 13.1524C22.9543 13.2972 22.8821 13.4299 22.7768 13.5338C22.6715 13.6377 22.5379 13.7082 22.3927 13.7363C22.2475 13.7644 22.0972 13.749 21.9607 13.692C21.8243 13.6349 21.7077 13.5388 21.6257 13.4157C21.5438 13.2926 21.5 13.148 21.5 13.0001C21.5 12.9007 21.5197 12.8024 21.558 12.7107C21.5963 12.6191 21.6525 12.5359 21.7232 12.4662C21.7939 12.3964 21.8778 12.3414 21.9699 12.3043C22.0621 12.2672 22.1607 12.2487 22.26 12.2501ZM22.26 13.2501C22.309 13.2481 22.3563 13.2318 22.3961 13.2032C22.4358 13.1745 22.4663 13.1348 22.4837 13.089C22.5011 13.0432 22.5047 12.9933 22.4939 12.9455C22.4832 12.8976 22.4586 12.854 22.4233 12.8201C22.3879 12.7861 22.3434 12.7633 22.2952 12.7544C22.247 12.7455 22.1973 12.751 22.1522 12.7702C22.1071 12.7894 22.0686 12.8214 22.0415 12.8623C22.0145 12.9031 22 12.9511 22 13.0001C22 13.0338 22.0068 13.0671 22.0199 13.0981C22.0331 13.1291 22.0524 13.1571 22.0767 13.1805C22.101 13.2038 22.1298 13.222 22.1613 13.234C22.1928 13.2459 22.2263 13.2514 22.26 13.2501Z" fill="#E2DFF4"/>
<path d="M2.99023 10H2.49023V11H2.99023V10Z" fill="#E2DFF4"/>
<path d="M2.99023 7.5H2.49023V8.5H2.99023V7.5Z" fill="#E2DFF4"/>
<path d="M1.99023 9H0.990234V9.5H1.99023V9Z" fill="#E2DFF4"/>
<path d="M8.66996 15L7.87996 10H6.70996L7.49996 15H8.66996Z" fill="#D6DBE1"/>
<path d="M19.03 10L18.875 10.5L17.5 15.145C17.4679 15.2513 17.4013 15.3439 17.3108 15.4082C17.2203 15.4725 17.1109 15.5048 17 15.5H7.5C7.38015 15.5016 7.26374 15.46 7.17197 15.3829C7.0802 15.3058 7.01917 15.1984 7 15.08L6.285 10.5L6.155 9.69004L5.97 8.50004L5.9 8.08004C5.9 8.08004 5.9 8.08004 5.9 8.05004L5.81 7.50004L5.575 6.00004H4V5.00004H6C6.11985 4.9985 6.23626 5.04006 6.32803 5.11715C6.4198 5.19424 6.48083 5.30173 6.5 5.42004L6.825 7.50004L7.295 10.5L7.925 14.5H16.63L17.825 10.5L17.975 10H19.03ZM9.5 19C9.20333 19 8.91332 18.9121 8.66665 18.7472C8.41997 18.5824 8.22771 18.3482 8.11418 18.0741C8.00065 17.8 7.97094 17.4984 8.02882 17.2074C8.0867 16.9164 8.22956 16.6492 8.43934 16.4394C8.64912 16.2296 8.91639 16.0867 9.20736 16.0289C9.49834 15.971 9.79994 16.0007 10.074 16.1142C10.3481 16.2278 10.5824 16.42 10.7472 16.6667C10.912 16.9134 11 17.2034 11 17.5C11 17.8979 10.842 18.2794 10.5607 18.5607C10.2794 18.842 9.89782 19 9.5 19ZM9.5 17C9.40111 17 9.30444 17.0294 9.22221 17.0843C9.13999 17.1392 9.0759 17.2173 9.03806 17.3087C9.00022 17.4001 8.99031 17.5006 9.00961 17.5976C9.0289 17.6946 9.07652 17.7837 9.14645 17.8536C9.21637 17.9235 9.30546 17.9711 9.40245 17.9904C9.49944 18.0097 9.59998 17.9998 9.69134 17.962C9.7827 17.9241 9.86079 17.8601 9.91574 17.7778C9.97068 17.6956 10 17.5989 10 17.5C10 17.3674 9.94732 17.2403 9.85355 17.1465C9.75979 17.0527 9.63261 17 9.5 17ZM14.5 19C14.2033 19 13.9133 18.9121 13.6666 18.7472C13.42 18.5824 13.2277 18.3482 13.1142 18.0741C13.0006 17.8 12.9709 17.4984 13.0288 17.2074C13.0867 16.9164 13.2296 16.6492 13.4393 16.4394C13.6491 16.2296 13.9164 16.0867 14.2074 16.0289C14.4983 15.971 14.7999 16.0007 15.074 16.1142C15.3481 16.2278 15.5824 16.42 15.7472 16.6667C15.912 16.9134 16 17.2034 16 17.5C16 17.8979 15.842 18.2794 15.5607 18.5607C15.2794 18.842 14.8978 19 14.5 19ZM14.5 17C14.4011 17 14.3044 17.0294 14.2222 17.0843C14.14 17.1392 14.0759 17.2173 14.0381 17.3087C14.0002 17.4001 13.9903 17.5006 14.0096 17.5976C14.0289 17.6946 14.0765 17.7837 14.1464 17.8536C14.2164 17.9235 14.3055 17.9711 14.4025 17.9904C14.4994 18.0097 14.6 17.9998 14.6913 17.962C14.7827 17.9241 14.8608 17.8601 14.9157 17.7778C14.9707 17.6956 15 17.5989 15 17.5C15 17.3674 14.9473 17.2403 14.8536 17.1465C14.7598 17.0527 14.6326 17 14.5 17Z" fill="#322F56"/>
<path d="M20.0002 8.12001L19.5002 10.12C19.4728 10.2309 19.4082 10.3292 19.3173 10.3983C19.2263 10.4674 19.1144 10.5033 19.0002 10.5H6.28516L5.78516 7.50001H19.5002C19.5761 7.4996 19.6511 7.5165 19.7196 7.54942C19.788 7.58234 19.8481 7.63042 19.8952 7.69001C19.9445 7.74881 19.9796 7.81819 19.9978 7.89276C20.016 7.96732 20.0168 8.04508 20.0002 8.12001Z" fill="#6666FF"/>
</svg>
