<svg width="24" height="24" viewBox="0 0 24 24" fill="none" xmlns="http://www.w3.org/2000/svg">
<path d="M10.1327 15.4819C10.1327 18.123 0.571777 18.123 0.571777 15.4819C0.571777 12.8422 2.71181 10.7021 5.35289 10.7021C7.99265 10.7021 10.1327 12.8422 10.1327 15.4819Z" fill="#FE9C14"/>
<path opacity="0.4" d="M10.1328 15.4811C10.1328 17.417 5.00154 17.9335 2.25879 17.033C4.9421 16.2125 7.07459 14.1348 7.97515 11.4858C9.27565 12.3384 10.1328 13.8103 10.1328 15.4811Z" fill="white"/>
<path d="M23.4281 15.4819C23.4281 18.123 13.8672 18.123 13.8672 15.4819C13.8672 12.8422 16.0072 10.7021 18.6483 10.7021C21.2881 10.7021 23.4281 12.8422 23.4281 15.4819Z" fill="#FBCA43"/>
<path opacity="0.4" d="M23.4283 15.481C23.4283 17.362 18.585 17.9037 15.792 17.1061C17.9016 15.6159 19.5495 13.5176 20.4798 11.0652C22.21 11.7829 23.4283 13.4902 23.4283 15.481Z" fill="white"/>
<path d="M20.9438 5.98802C20.9438 7.25627 19.9159 9.18574 18.6477 9.18574C17.3794 9.18574 16.3516 7.25627 16.3516 5.98802C16.3516 4.71977 17.3794 3.69189 18.6477 3.69189C19.9159 3.69189 20.9438 4.71977 20.9438 5.98802Z" fill="#E9CD84"/>
<path opacity="0.4" d="M20.9436 5.98892C20.9436 7.25745 19.9151 9.18649 18.6465 9.18649C18.0225 9.18649 17.4557 8.71793 17.042 8.09168C18.5071 7.24601 19.5996 5.83123 20.0201 4.14673C20.5802 4.56499 20.9436 5.23465 20.9436 5.98892Z" fill="white"/>
<path d="M7.6484 5.98802C7.6484 7.25627 6.62053 9.18574 5.35228 9.18574C4.08403 9.18574 3.05615 7.25627 3.05615 5.98802C3.05615 4.71977 4.08403 3.69189 5.35228 3.69189C6.62053 3.69189 7.6484 4.71977 7.6484 5.98802Z" fill="#E9CD84"/>
<path opacity="0.4" d="M7.64866 5.98892C7.64866 7.25745 6.62013 9.18649 5.3516 9.18649C4.7276 9.18649 4.16079 8.71793 3.74707 8.09168C5.21215 7.24601 6.30466 5.83123 6.72523 4.14673C7.28524 4.56499 7.64866 5.23465 7.64866 5.98892Z" fill="white"/>
<path d="M14.2964 8.22166C14.2964 9.48991 13.2685 11.4194 12.0002 11.4194C10.732 11.4194 9.7041 9.48991 9.7041 8.22166C9.7041 6.95341 10.732 5.92554 12.0002 5.92554C13.2685 5.92554 14.2964 6.95341 14.2964 8.22166Z" fill="#E9CD84"/>
<path opacity="0.4" d="M14.2961 8.22158C14.2961 9.49011 13.2676 11.4192 11.9991 11.4192C11.3751 11.4192 10.8083 10.9506 10.3945 10.3243C11.8596 9.47868 12.9521 8.06389 13.3727 6.37939C13.9327 6.79761 14.2961 7.46732 14.2961 8.22158Z" fill="white"/>
<path d="M16.7806 18.3274C16.7806 20.9685 7.21973 20.9685 7.21973 18.3274C7.21973 15.6876 9.35976 13.5476 12.0008 13.5476C14.6406 13.5476 16.7806 15.6876 16.7806 18.3274Z" fill="#FC575B"/>
<path opacity="0.4" d="M16.7814 18.3267C16.7814 20.85 8.06632 20.9643 7.27783 18.6696C7.40125 18.6764 7.52468 18.6787 7.65039 18.6787C10.6446 18.6787 13.2776 16.9942 14.793 14.448C15.9975 15.3165 16.7814 16.7291 16.7814 18.3267Z" fill="white"/>
<path d="M23.6892 15.0042C23.672 14.8473 23.5312 14.7326 23.374 14.7515C23.2171 14.7688 23.1039 14.9098 23.1214 15.0667C23.1354 15.1955 23.1424 15.3313 23.1424 15.4812C23.1424 16.4479 21.2101 17.1771 18.6477 17.1771C18.0192 17.1771 17.4348 17.1295 16.9023 17.0484C16.5487 15.6943 15.6472 14.5598 14.4501 13.8956C15.0933 12.1995 16.7292 10.9876 18.6488 10.9876C20.0135 10.9876 21.2878 11.5963 22.1453 12.6574C22.2444 12.7799 22.4243 12.7992 22.5473 12.7C22.6698 12.6007 22.6891 12.4208 22.5899 12.298C21.6232 11.1021 20.1869 10.4162 18.6488 10.4162C16.5029 10.4162 14.6693 11.7585 13.9322 13.6456C13.3366 13.3989 12.6844 13.262 12.0006 13.262C11.3157 13.262 10.6624 13.3993 10.0659 13.6467C9.32921 11.7594 7.49809 10.4164 5.35313 10.4164C2.55929 10.4164 0.286133 12.6889 0.286133 15.482C0.286133 17.2965 3.54521 17.7485 5.35243 17.7485C5.90359 17.7485 6.4547 17.7135 6.98115 17.6448C6.95087 17.8682 6.93385 18.0958 6.93385 18.3275C6.93385 20.1412 10.1907 20.5939 12 20.5939C14.5217 20.5939 17.0663 19.893 17.0663 18.3275C17.0663 18.0946 17.0491 17.8657 17.0185 17.6411C17.5334 17.7099 18.0806 17.7485 18.6477 17.7485C21.1695 17.7485 23.7138 17.0473 23.7138 15.4812C23.7138 15.31 23.7057 15.154 23.6892 15.0042ZM5.35248 17.1771C2.78987 17.1771 0.857586 16.4483 0.857586 15.4821C0.857586 13.004 2.87424 10.9879 5.35318 10.9879C7.27229 10.9879 8.90607 12.2003 9.54746 13.8974C8.35121 14.5621 7.45055 15.6963 7.09744 17.0498C6.56518 17.1304 5.98023 17.1771 5.35248 17.1771ZM12 20.0225C9.43758 20.0225 7.50526 19.2937 7.50526 18.3275C7.50526 15.8495 9.52191 13.8335 12.0006 13.8335C14.4787 13.8335 16.4949 15.8495 16.4949 18.3275C16.4949 19.2937 14.5626 20.0225 12 20.0225ZM18.6477 9.47141C20.1208 9.47141 21.2295 7.35833 21.2295 5.98808C21.2295 4.56448 20.0713 3.40625 18.6477 3.40625C17.2241 3.40625 16.0659 4.56448 16.0659 5.98808C16.0659 7.35828 17.1745 9.47141 18.6477 9.47141ZM18.6477 3.97766C19.7561 3.97766 20.6581 4.87963 20.6581 5.98808C20.6581 7.11148 19.738 8.9 18.6477 8.9C17.5573 8.9 16.6373 7.11144 16.6373 5.98808C16.6373 4.87963 17.5392 3.97766 18.6477 3.97766ZM5.35248 9.47141C6.82562 9.47141 7.9343 7.35833 7.9343 5.98808C7.9343 4.56448 6.77607 3.40625 5.35248 3.40625C3.92888 3.40625 2.77065 4.56448 2.77065 5.98808C2.77065 7.35828 3.87929 9.47141 5.35248 9.47141ZM5.35248 3.97766C6.46093 3.97766 7.3629 4.87963 7.3629 5.98808C7.3629 7.11148 6.44284 8.9 5.35248 8.9C4.26212 8.9 3.34205 7.11144 3.34205 5.98808C3.34205 4.87963 4.24402 3.97766 5.35248 3.97766Z" fill="white"/>
<path d="M11.9998 11.7048C13.4729 11.7048 14.5816 9.59173 14.5816 8.22148C14.5816 6.79788 13.4234 5.63965 11.9998 5.63965C10.5762 5.63965 9.41797 6.79788 9.41797 8.22148C9.41797 9.59173 10.5267 11.7048 11.9998 11.7048ZM11.9998 6.21105C13.1082 6.21105 14.0102 7.11302 14.0102 8.22148C14.0102 9.34488 13.0902 11.1334 11.9998 11.1334C10.9094 11.1334 9.98937 9.34484 9.98937 8.22148C9.98937 7.11302 10.8913 6.21105 11.9998 6.21105Z" fill="white"/>
</svg>
