<svg width="25" height="24" viewBox="0 0 25 24" fill="none" xmlns="http://www.w3.org/2000/svg">
<path d="M20.5264 9L13.5264 2H7.52637C6.73072 2 5.96766 2.31607 5.40505 2.87868C4.84244 3.44129 4.52637 4.20435 4.52637 5V19C4.52637 19.7956 4.84244 20.5587 5.40505 21.1213C5.96766 21.6839 6.73072 22 7.52637 22H17.5264C18.322 22 19.0851 21.6839 19.6477 21.1213C20.2103 20.5587 20.5264 19.7956 20.5264 19V9Z" fill="#B2B1FF"/>
<path d="M20.5264 9H15.5264C14.9959 9 14.4872 8.78929 14.1122 8.41421C13.7371 8.03914 13.5264 7.53043 13.5264 7V2L20.5264 9ZM15.5264 18H9.52637C9.26115 18 9.0068 17.8946 8.81926 17.7071C8.63172 17.5196 8.52637 17.2652 8.52637 17C8.52637 16.7348 8.63172 16.4804 8.81926 16.2929C9.0068 16.1054 9.26115 16 9.52637 16H15.5264C15.7916 16 16.0459 16.1054 16.2335 16.2929C16.421 16.4804 16.5264 16.7348 16.5264 17C16.5264 17.2652 16.421 17.5196 16.2335 17.7071C16.0459 17.8946 15.7916 18 15.5264 18ZM15.5264 14H9.52637C9.26115 14 9.0068 13.8946 8.81926 13.7071C8.63172 13.5196 8.52637 13.2652 8.52637 13C8.52637 12.7348 8.63172 12.4804 8.81926 12.2929C9.0068 12.1054 9.26115 12 9.52637 12H15.5264C15.7916 12 16.0459 12.1054 16.2335 12.2929C16.421 12.4804 16.5264 12.7348 16.5264 13C16.5264 13.2652 16.421 13.5196 16.2335 13.7071C16.0459 13.8946 15.7916 14 15.5264 14ZM10.5264 10H9.52637C9.26115 10 9.0068 9.89464 8.81926 9.70711C8.63172 9.51957 8.52637 9.26522 8.52637 9C8.52637 8.73478 8.63172 8.48043 8.81926 8.29289C9.0068 8.10536 9.26115 8 9.52637 8H10.5264C10.7916 8 11.0459 8.10536 11.2335 8.29289C11.421 8.48043 11.5264 8.73478 11.5264 9C11.5264 9.26522 11.421 9.51957 11.2335 9.70711C11.0459 9.89464 10.7916 10 10.5264 10Z" fill="#6563FF"/>
</svg>
