<svg width="24" height="24" viewBox="0 0 24 24" fill="none" xmlns="http://www.w3.org/2000/svg">
<path d="M1 12C1 4 4 1 12 1C20 1 23 4 23 12C23 20 20 23 12 23C4 23 1 20 1 12Z" fill="#FF003C"/>
<path d="M16.6199 12.8297C15.6739 12.3856 14.6596 12.1049 13.6199 11.9997C14.6596 11.8945 15.6739 11.6139 16.6199 11.1697C16.9822 10.9567 17.2461 10.6097 17.3547 10.2036C17.4632 9.79756 17.4076 9.36511 17.1999 8.99973C17.0953 8.81532 16.955 8.65367 16.787 8.5243C16.6191 8.39494 16.427 8.30045 16.222 8.24641C16.017 8.19237 15.8033 8.17987 15.5934 8.20963C15.3836 8.23939 15.1817 8.31083 14.9999 8.41973C14.152 9.00499 13.4084 9.72837 12.7999 10.5597C13.2245 9.61111 13.4817 8.59611 13.5599 7.55973C13.5599 7.13803 13.3924 6.73361 13.0942 6.43543C12.796 6.13724 12.3916 5.96973 11.9699 5.96973C11.5482 5.96973 11.1438 6.13724 10.8456 6.43543C10.5474 6.73361 10.3799 7.13803 10.3799 7.55973C10.4581 8.59611 10.7152 9.61111 11.1399 10.5597C10.5494 9.73327 9.82633 9.01018 8.99988 8.41973C8.818 8.31083 8.61619 8.23939 8.40631 8.20963C8.19643 8.17987 7.98271 8.19237 7.77773 8.24641C7.57275 8.30045 7.38065 8.39494 7.21272 8.5243C7.04479 8.65367 6.90442 8.81532 6.79988 8.99973C6.59216 9.36511 6.53656 9.79756 6.64508 10.2036C6.75361 10.6097 7.01756 10.9567 7.37988 11.1697C8.32581 11.6139 9.34017 11.8945 10.3799 11.9997C9.34017 12.1049 8.32581 12.3856 7.37988 12.8297C7.01756 13.0428 6.75361 13.3898 6.64508 13.7958C6.53656 14.2019 6.59216 14.6343 6.79988 14.9997C6.90442 15.1841 7.04479 15.3458 7.21272 15.4751C7.38065 15.6045 7.57275 15.699 7.77773 15.753C7.98271 15.8071 8.19643 15.8196 8.40631 15.7898C8.61619 15.7601 8.818 15.6886 8.99988 15.5797C9.84774 14.9945 10.5914 14.2711 11.1999 13.4397C10.7752 14.3883 10.5181 15.4033 10.4399 16.4397C10.4399 16.8614 10.6074 17.2658 10.9056 17.564C11.2038 17.8622 11.6082 18.0297 12.0299 18.0297C12.4516 18.0297 12.856 17.8622 13.1542 17.564C13.4524 17.2658 13.6199 16.8614 13.6199 16.4397C13.5417 15.4033 13.2845 14.3883 12.8599 13.4397C13.4503 14.2662 14.1734 14.9893 14.9999 15.5797C15.1817 15.6886 15.3836 15.7601 15.5934 15.7898C15.8033 15.8196 16.017 15.8071 16.222 15.753C16.427 15.699 16.6191 15.6045 16.787 15.4751C16.955 15.3458 17.0953 15.1841 17.1999 14.9997C17.4076 14.6343 17.4632 14.2019 17.3547 13.7958C17.2461 13.3898 16.9822 13.0428 16.6199 12.8297ZM11.9999 13.0597C11.7902 13.0597 11.5853 12.9976 11.411 12.8811C11.2367 12.7646 11.1008 12.5991 11.0206 12.4054C10.9403 12.2117 10.9193 11.9986 10.9602 11.7929C11.0011 11.5873 11.1021 11.3984 11.2503 11.2502C11.3986 11.1019 11.5875 11.001 11.7931 10.9601C11.9987 10.9192 12.2118 10.9402 12.4055 11.0204C12.5992 11.1006 12.7648 11.2365 12.8812 11.4108C12.9977 11.5851 13.0599 11.7901 13.0599 11.9997C13.0573 12.28 12.9448 12.5482 12.7465 12.7464C12.5483 12.9446 12.2802 13.0571 11.9999 13.0597Z" fill="white"/>
</svg>
