<svg width="24" height="24" viewBox="0 0 24 24" fill="none" xmlns="http://www.w3.org/2000/svg">
<g clip-path="url(#clip0_304_7625)">
<path d="M6.18877 23.625V17.2969H1.27288L0.416196 22.0781C0.265069 22.9216 1.10414 23.625 1.95866 23.625H6.18877Z" fill="#58DC72"/>
<path d="M1.27299 17.2969L1.02979 18.6562H3.92191C4.08102 18.6583 4.23662 18.6093 4.36609 18.5165C4.49556 18.4238 4.59216 18.292 4.64184 18.1404C4.69152 17.9888 4.6917 17.8253 4.64235 17.6736C4.593 17.5219 4.49669 17.3899 4.36742 17.2969H1.27299Z" fill="#81EAAA"/>
<path d="M14.1142 17.2969H9.18066V23.625H22.0579C22.9125 23.625 23.7547 22.921 23.6004 22.0781L21.8783 12.6401C19.9722 15.8187 17.048 18.7485 16.1641 18.7485C15.7953 18.7485 14.9837 18.1624 14.1142 17.2969Z" fill="#79A4FF"/>
<path d="M10.0969 14.2969H1.81048L1.27295 17.2969H6.18884V23.625H9.18029V17.2969H12.1988C12.1988 17.2969 11.4734 16.3545 10.6074 15.0886C10.4413 14.8459 10.2691 14.559 10.0969 14.2969Z" fill="#FFC100"/>
<path d="M10.0972 14.2969C10.2695 14.559 10.4416 14.8459 10.6077 15.0886C11.4737 16.3545 12.1991 17.2969 12.1991 17.2969H14.114C13.3109 16.5083 12.4266 15.4817 11.563 14.2969H10.0972Z" fill="#FF9200"/>
<path d="M7.51958 8.53198L4.10891 8.53125C3.25438 8.53098 2.71757 9.23466 2.56644 10.0781L1.81055 14.2969H10.0969C9.82004 13.8755 9.54117 13.4667 9.27604 13.0247C8.84594 12.3076 8.45416 11.5873 8.17323 10.9409C7.89229 10.2946 7.69407 9.55663 7.55464 8.81396C7.53641 8.7169 7.53584 8.62904 7.51958 8.53198Z" fill="#25B77E"/>
<path d="M7.51953 8.53223C7.53579 8.62928 7.53636 8.71714 7.55459 8.81421C7.69402 9.55688 7.89225 10.2948 8.17318 10.9412C8.45412 11.5875 8.84589 12.3078 9.27599 13.0249C9.54112 13.4669 9.81999 13.8758 10.0969 14.2971H11.5627C10.2141 12.4295 9.04838 10.324 8.78593 8.53296L7.51953 8.53223Z" fill="#259577"/>
<path d="M16.1638 0.373535C12.0593 0.373535 8.73193 3.71041 8.73193 7.82666C8.73193 11.9429 14.8638 18.7485 16.1638 18.7485C17.5106 18.7485 23.5957 11.9429 23.5957 7.82666C23.5957 3.71041 20.2683 0.373535 16.1638 0.373535ZM16.1638 3.99463C16.6046 3.99462 17.0411 4.08169 17.4484 4.25085C17.8556 4.42002 18.2256 4.66797 18.5373 4.98055C18.849 5.29313 19.0963 5.66423 19.265 6.07264C19.4336 6.48105 19.5205 6.91878 19.5204 7.36084C19.5205 7.8029 19.4336 8.24063 19.265 8.64904C19.0963 9.05745 18.849 9.42854 18.5373 9.74113C18.2256 10.0537 17.8556 10.3017 17.4484 10.4708C17.0411 10.64 16.6046 10.7271 16.1638 10.7271C15.723 10.7271 15.2865 10.64 14.8793 10.4708C14.472 10.3017 14.102 10.0537 13.7903 9.74113C13.4786 9.42854 13.2314 9.05745 13.0627 8.64904C12.894 8.24063 12.8072 7.8029 12.8072 7.36084C12.8072 6.91878 12.894 6.48105 13.0627 6.07264C13.2314 5.66423 13.4786 5.29313 13.7903 4.98055C14.102 4.66797 14.472 4.42002 14.8793 4.25085C15.2865 4.08169 15.723 3.99462 16.1638 3.99463Z" fill="#FF2A2A"/>
<path d="M2.58976 22.3712C2.44412 22.3692 2.30109 22.41 2.17823 22.4885C2.05537 22.5669 1.95802 22.6797 1.89815 22.8128C1.83827 22.946 1.81847 23.0938 1.84117 23.2381C1.86387 23.3824 1.92809 23.5169 2.02594 23.6251H6.18886V22.3712H2.58976Z" fill="#25B77E"/>
<path d="M6.73891 17.6383C6.51833 17.6415 6.32363 17.7417 6.18896 17.8961V23.6251H9.18042V22.3595H7.49773V18.3985C7.50349 17.976 7.16023 17.6321 6.73891 17.6383Z" fill="#FF9200"/>
<path d="M22.7423 19.2789C22.2697 19.2714 21.9088 19.6999 21.9951 20.1659L22.2807 21.8365C22.373 22.3368 22.1827 22.3631 21.9834 22.3631H9.18066V23.6251H22.0579C22.9125 23.6251 23.7547 22.9211 23.6004 22.0782L23.1082 19.3822C22.9999 19.3186 22.875 19.2809 22.7423 19.2789Z" fill="#9BBAFF"/>
<path d="M21.8779 12.6401C21.3245 13.5629 20.6905 14.4594 20.0404 15.2747C19.1949 16.3221 18.3404 17.277 17.352 18.0908C17.0798 18.3173 16.6364 18.6276 16.3668 18.709C16.2912 18.7339 16.2223 18.7485 16.1637 18.7485C15.7949 18.7485 14.9832 18.1624 14.1137 17.2969H12.1987C12.8705 18.1145 14.2465 19.3306 14.7293 19.6501C15.1055 19.9129 15.6561 20.2374 16.3675 20.0947C16.8177 20.0044 17.3091 19.8041 17.8559 19.3916C18.4027 18.9791 19.0537 18.3587 20.0469 17.3291C20.9568 16.386 21.6849 15.3918 22.2284 14.5627L21.8779 12.6401Z" fill="#3F75F8"/>
<path d="M1.81086 14.2969L1.57715 15.6021H8.60298C8.75484 15.6042 8.90375 15.5599 9.0299 15.4751C9.15606 15.3903 9.25348 15.269 9.30922 15.1273C9.36495 14.9856 9.37636 14.8303 9.34191 14.6819C9.30747 14.5336 9.22881 14.3993 9.1164 14.2969H1.81086Z" fill="#FFDB64"/>
<path d="M4.10896 8.53125C3.30443 8.531 2.78173 9.15695 2.59717 9.93384H6.12396C6.8959 9.94237 7.17314 8.91504 6.50227 8.53198L4.10896 8.53125Z" fill="#29CC9C"/>
<path d="M16.1636 0.374512C13.1143 0.374512 10.4954 2.23746 9.34961 4.86891C9.53968 5.51589 10.4211 5.60165 10.7321 5.00351C10.7321 5.00351 12.4161 1.75562 15.9577 1.75562C19.5925 1.75562 21.0671 4.29687 21.0671 4.29687C21.4553 4.96836 22.4903 4.6783 22.4708 3.90259C21.1574 1.79989 18.8225 0.374512 16.1636 0.374512Z" fill="#FF5853"/>
<path d="M12.2828 7.60695C11.8101 7.60916 11.458 8.0451 11.5539 8.50929C11.5539 8.50929 11.7308 9.45648 12.4011 10.3726C13.0715 11.2887 14.3411 12.2105 16.2288 12.1165C18.0858 12.024 19.2883 11.1329 19.9396 10.27C20.591 9.40718 20.7591 8.53199 20.7591 8.53199C20.9159 7.71283 19.9225 7.38269 19.4781 7.86403C19.3581 8.65977 18.9579 9.38609 18.3499 9.91132C17.7418 10.4366 16.9663 10.726 16.1638 10.7271C15.3606 10.7264 14.5843 10.4369 13.9758 9.91121C13.3672 9.38548 12.9669 8.65835 12.8474 7.86183C12.7083 7.70384 12.5055 7.60567 12.2828 7.60695Z" fill="#E4171D"/>
</g>
<defs>
<clipPath id="clip0_304_7625">
<rect width="24" height="24" fill="white"/>
</clipPath>
</defs>
</svg>
